<?xml version="1.0" encoding="UTF-8"?>
<svg version="1.1" xmlns="http://www.w3.org/2000/svg" width="192" height="192">
<path d="M0 0 C2.18341574 0.00851187 4.36420341 -0.02037972 6.54736328 -0.05200195 C26.18907418 -0.14916493 47.20012874 6.5397496 62.31689453 19.44604492 C62.31689453 20.10604492 62.31689453 20.76604492 62.31689453 21.44604492 C62.87376953 21.69354492 63.43064453 21.94104492 64.00439453 22.19604492 C69.42644607 25.12688359 73.74113862 29.45718959 77.31689453 34.44604492 C77.31689453 35.10604492 77.31689453 35.76604492 77.31689453 36.44604492 C78.30689453 36.77604492 79.29689453 37.10604492 80.31689453 37.44604492 C93.58704777 53.0951612 98.88137955 74.11053967 98.76293945 94.12915039 C98.75442759 96.31256613 98.78331917 98.4933538 98.81494141 100.67651367 C98.91210439 120.31822458 92.22318985 141.32927913 79.31689453 156.44604492 C78.65689453 156.44604492 77.99689453 156.44604492 77.31689453 156.44604492 C77.06939453 157.00291992 76.82189453 157.55979492 76.56689453 158.13354492 C73.63605586 163.55559646 69.30574986 167.87028901 64.31689453 171.44604492 C63.65689453 171.44604492 62.99689453 171.44604492 62.31689453 171.44604492 C61.98689453 172.43604492 61.65689453 173.42604492 61.31689453 174.44604492 C45.66777825 187.71619816 24.65239978 193.01052994 4.63378906 192.89208984 C2.45037333 192.88357798 0.26958565 192.91246956 -1.91357422 192.9440918 C-21.55528512 193.04125478 -42.56633968 186.35234024 -57.68310547 173.44604492 C-57.68310547 172.78604492 -57.68310547 172.12604492 -57.68310547 171.44604492 C-58.23998047 171.19854492 -58.79685547 170.95104492 -59.37060547 170.69604492 C-64.79265701 167.76520625 -69.10734955 163.43490025 -72.68310547 158.44604492 C-72.68310547 157.78604492 -72.68310547 157.12604492 -72.68310547 156.44604492 C-73.67310547 156.11604492 -74.66310547 155.78604492 -75.68310547 155.44604492 C-88.9532587 139.79692864 -94.24759049 118.78155017 -94.12915039 98.76293945 C-94.12063852 96.57952372 -94.14953011 94.39873604 -94.18115234 92.21557617 C-94.27831533 72.57386527 -87.58940079 51.56281071 -74.68310547 36.44604492 C-74.02310547 36.44604492 -73.36310547 36.44604492 -72.68310547 36.44604492 C-72.43560547 35.88916992 -72.18810547 35.33229492 -71.93310547 34.75854492 C-69.0022668 29.33649338 -64.6719608 25.02180084 -59.68310547 21.44604492 C-59.02310547 21.44604492 -58.36310547 21.44604492 -57.68310547 21.44604492 C-57.18810547 19.96104492 -57.18810547 19.96104492 -56.68310547 18.44604492 C-41.03398919 5.17589169 -20.01861072 -0.11844009 0 0 Z " fill="#209CEE" transform="translate(93.68310546875,-0.446044921875)"/>
<path d="M0 0 C0.97195312 -0.01224609 1.94390625 -0.02449219 2.9453125 -0.03710938 C8.11036004 -0.04766465 12.11644068 0.35524174 17 2.1875 C19.21960074 2.25866244 19.21960074 2.25866244 21.3125 1.875 C22.44945313 1.71257813 22.44945313 1.71257813 23.609375 1.546875 C24.39828125 1.42828125 25.1871875 1.3096875 26 1.1875 C27.68673857 0.9932695 29.37423756 0.80550605 31.0625 0.625 C32.361875 0.480625 33.66125 0.33625 35 0.1875 C38.11654864 8.70606628 38.13173081 16.65162258 38.0625 25.625 C38.05798828 26.73810547 38.05347656 27.85121094 38.04882812 28.99804688 C38.03711207 31.72788796 38.01917891 34.45770114 38 37.1875 C33.71 37.1875 29.42 37.1875 25 37.1875 C24.2575 35.33125 23.515 33.475 22.75 31.5625 C19.62509807 24.12225732 17.2429243 19.34832886 10 15.1875 C5.09066037 13.55105346 0.11722792 13.5590685 -5 14.1875 C-8.48242391 16.71396441 -9.65226822 18.14430465 -11 22.1875 C-11.48922099 28.6696781 -10.22682944 32.59170272 -5.99609375 37.5234375 C-2.31313248 41.12112328 2.23401811 43.30258057 6.75 45.6875 C8.47404013 46.61443121 10.19799896 47.54151365 11.921875 48.46875 C14.43276238 49.81417593 16.94426103 51.15799438 19.46191406 52.49072266 C28.87933816 57.56721113 38.05811428 64.74932795 42.1015625 74.97265625 C44.37933859 83.12313331 44.01719029 92.20522041 40.3671875 99.8828125 C34.49556344 109.78069307 25.69040563 115.75243668 14.671875 118.83984375 C12.75 119.125 12.75 119.125 9 119.1875 C7.92298828 119.25904297 7.92298828 119.25904297 6.82421875 119.33203125 C-2.06303649 119.72475775 -11.23455245 117.79308136 -19.62890625 114.96484375 C-23.45656797 114.08221955 -24.78968869 114.42204805 -28.25 116.125 C-32.71655041 118.2819832 -32.71655041 118.2819832 -36 117.1875 C-36.87890625 115.1484375 -36.87890625 115.1484375 -37.5625 112.5625 C-37.80871094 111.65242188 -38.05492187 110.74234375 -38.30859375 109.8046875 C-38.53675781 108.94101563 -38.76492187 108.07734375 -39 107.1875 C-39.556875 105.455 -39.556875 105.455 -40.125 103.6875 C-42.38869592 94.63271631 -42.09099052 85.46853296 -42 76.1875 C-36.72 76.1875 -31.44 76.1875 -26 76.1875 C-24.9790625 79.3740625 -24.9790625 79.3740625 -23.9375 82.625 C-20.8348675 91.57478168 -16.35796867 99.01409481 -7.60546875 103.3828125 C-2.00957655 105.11107906 4.74791053 105.42028177 10.27734375 103.32421875 C13.10163106 101.46057338 13.8403203 99.31863519 15 96.1875 C15.74923924 91.01369929 15.01456001 87.47063051 12 83.1875 C6.34516589 77.98359016 -0.78325841 74.67053941 -7.5625 71.1875 C-14.25500833 67.74148775 -20.42907589 64.32356294 -26 59.1875 C-26.71414062 58.55199219 -27.42828125 57.91648438 -28.1640625 57.26171875 C-35.06346793 50.80136639 -38.53296374 44.45803603 -39.23828125 34.98828125 C-39.45283327 24.90433651 -38.34990803 17.45703565 -31.375 9.875 C-21.99086025 1.22618463 -12.26685888 0.00813452 0 0 Z " fill="#FBFDFE" transform="translate(96,36.8125)"/>
</svg>
